<mxfile host="app.diagrams.net" modified="2021-10-07T17:08:51.697Z" agent="5.0 (Windows NT 10.0; Win64; x64) AppleWebKit/537.36 (KHTML, like Gecko) Chrome/94.0.4606.71 Safari/537.36" etag="bZ3sSNrAf0V6nedDzrJO" version="15.4.3" type="github">
  <diagram id="prtHgNgQTEPvFCAcTncT" name="Page-1">
    <mxGraphModel dx="868" dy="460" grid="1" gridSize="10" guides="1" tooltips="1" connect="1" arrows="1" fold="1" page="1" pageScale="1" pageWidth="827" pageHeight="1169" math="0" shadow="0">
      <root>
        <mxCell id="0" />
        <mxCell id="1" parent="0" />
        <mxCell id="zLqpVHw7FpCG7daxVIKI-7" value="&lt;font color=&quot;#003366&quot;&gt;&lt;font face=&quot;Verdana&quot;&gt;&amp;nbsp;COVID-19 Defense System&lt;/font&gt;&lt;br&gt;&lt;br&gt;&lt;ul&gt;&lt;li&gt;&lt;font color=&quot;#003366&quot;&gt;&lt;font face=&quot;Helvetica&quot;&gt;Look for possible risk&lt;/font&gt;&lt;/font&gt;&lt;/li&gt;&lt;li&gt;&lt;font face=&quot;Helvetica&quot;&gt;Warn and take necessary action&lt;/font&gt;&lt;/li&gt;&lt;/ul&gt;&lt;/font&gt;" style="rounded=1;shadow=1;glass=0;labelBackgroundColor=none;sketch=1;fontFamily=Times New Roman;fillColor=#9AC7BF;align=left;strokeWidth=0;opacity=80;fontStyle=1;fontColor=#330066;labelBorderColor=none;html=1;whiteSpace=wrap;verticalAlign=top;" vertex="1" parent="1">
          <mxGeometry x="250" y="120" width="250" height="90" as="geometry" />
        </mxCell>
        <mxCell id="zLqpVHw7FpCG7daxVIKI-12" value="&lt;font color=&quot;#e6e6e6&quot;&gt;&amp;nbsp;&lt;/font&gt;&lt;font style=&quot;font-size: 12px&quot;&gt; &lt;font color=&quot;#001933&quot;&gt;&lt;font face=&quot;Verdana&quot; style=&quot;font-size: 12px&quot;&gt;Potential COVID risk detection mechanism&lt;/font&gt;&lt;br&gt;&lt;/font&gt;&lt;ul&gt;&lt;li&gt;&lt;font style=&quot;font-size: 12px&quot; color=&quot;#001933&quot;&gt;&lt;span style=&quot;font-family: &amp;#34;helvetica&amp;#34;&quot;&gt;Fever detection&lt;/span&gt;&lt;/font&gt;&lt;/li&gt;&lt;li&gt;&lt;font style=&quot;font-size: 12px&quot; color=&quot;#001933&quot;&gt;&lt;span style=&quot;font-family: &amp;#34;helvetica&amp;#34;&quot;&gt;Face mask detection&lt;/span&gt;&lt;/font&gt;&lt;/li&gt;&lt;li&gt;&lt;font style=&quot;font-size: 12px&quot;&gt;&lt;span style=&quot;font-family: &amp;#34;helvetica&amp;#34;&quot;&gt;&lt;font color=&quot;#001933&quot;&gt;Checking the total number of people&lt;/font&gt;&lt;font color=&quot;#e6e6e6&quot;&gt;&amp;nbsp;&lt;/font&gt;&lt;/span&gt;&lt;/font&gt;&lt;/li&gt;&lt;/ul&gt;&lt;/font&gt;" style="rounded=1;whiteSpace=wrap;html=1;shadow=1;glass=0;labelBackgroundColor=none;labelBorderColor=none;sketch=0;fontFamily=Times New Roman;fontColor=#330066;strokeWidth=0;fillColor=#004C99;gradientColor=none;align=left;opacity=40;fontStyle=1;fontSize=14;verticalAlign=top;" vertex="1" parent="1">
          <mxGeometry x="10" y="240" width="310" height="90" as="geometry" />
        </mxCell>
        <mxCell id="zLqpVHw7FpCG7daxVIKI-13" value="" style="endArrow=classic;html=1;fontFamily=Helvetica;fontSize=12;fontColor=#E5CCFF;edgeStyle=orthogonalEdgeStyle;verticalAlign=middle;curved=1;endFill=1;strokeColor=#548C82;strokeWidth=2;shadow=1;sketch=0;" edge="1" parent="1">
          <mxGeometry width="50" height="50" relative="1" as="geometry">
            <mxPoint x="240" y="180" as="sourcePoint" />
            <mxPoint x="190" y="230" as="targetPoint" />
            <Array as="points">
              <mxPoint x="190" y="180" />
              <mxPoint x="240" y="230" />
            </Array>
          </mxGeometry>
        </mxCell>
        <mxCell id="zLqpVHw7FpCG7daxVIKI-15" value="&lt;font color=&quot;#001933&quot;&gt;&lt;font face=&quot;Verdana&quot; style=&quot;font-weight: bold&quot;&gt;&amp;nbsp;Risk-based warning mechanism&lt;/font&gt;&lt;br&gt;&lt;ul&gt;&lt;li&gt;&lt;b&gt;&lt;font color=&quot;#001933&quot;&gt;Flash red/green signal&lt;/font&gt;&lt;/b&gt;&lt;/li&gt;&lt;li&gt;&lt;b&gt;&lt;font color=&quot;#001933&quot;&gt;Turn on/off a buzzer&lt;/font&gt;&lt;/b&gt;&lt;/li&gt;&lt;li&gt;&lt;b&gt;&lt;font color=&quot;#001933&quot;&gt;Grant/block access&lt;/font&gt;&lt;/b&gt;&lt;/li&gt;&lt;/ul&gt;&lt;/font&gt;" style="rounded=1;whiteSpace=wrap;html=1;shadow=1;glass=0;labelBackgroundColor=none;labelBorderColor=none;sketch=0;fontFamily=Helvetica;fontSize=12;fontColor=#E5CCFF;strokeWidth=0;fillColor=#004C99;gradientColor=none;align=left;verticalAlign=top;opacity=40;" vertex="1" parent="1">
          <mxGeometry x="440" y="240" width="280" height="90" as="geometry" />
        </mxCell>
        <mxCell id="zLqpVHw7FpCG7daxVIKI-17" value="" style="endArrow=classic;html=1;fontFamily=Helvetica;fontSize=12;fontColor=#E5CCFF;edgeStyle=orthogonalEdgeStyle;verticalAlign=middle;curved=1;endFill=1;strokeColor=#548C82;strokeWidth=2;shadow=1;sketch=0;" edge="1" parent="1">
          <mxGeometry width="50" height="50" relative="1" as="geometry">
            <mxPoint x="520" y="180" as="sourcePoint" />
            <mxPoint x="560" y="230" as="targetPoint" />
            <Array as="points">
              <mxPoint x="500" y="180" />
              <mxPoint x="560" y="180" />
            </Array>
          </mxGeometry>
        </mxCell>
        <mxCell id="zLqpVHw7FpCG7daxVIKI-18" value="" style="endArrow=classic;startArrow=none;html=1;shadow=1;sketch=0;fontFamily=Helvetica;fontSize=12;fontColor=#E5CCFF;strokeColor=#548C82;strokeWidth=2;verticalAlign=middle;edgeStyle=orthogonalEdgeStyle;curved=1;startFill=0;" edge="1" parent="1">
          <mxGeometry width="50" height="50" relative="1" as="geometry">
            <mxPoint x="330" y="285" as="sourcePoint" />
            <mxPoint x="430" y="285" as="targetPoint" />
            <Array as="points" />
          </mxGeometry>
        </mxCell>
      </root>
    </mxGraphModel>
  </diagram>
</mxfile>
